<?xml version="1.0" standalone="no"?>
<!DOCTYPE svg PUBLIC "-//W3C//DTD SVG 20010904//EN"
 "http://www.w3.org/TR/2001/REC-SVG-20010904/DTD/svg10.dtd">
<svg version="1.0" xmlns="http://www.w3.org/2000/svg"
 width="201.000000pt" height="95.000000pt" viewBox="0 0 201.000000 95.000000"
 preserveAspectRatio="xMidYMid meet">

<g transform="translate(0.000000,95.000000) scale(0.100000,-0.100000)"
fill="#000000" stroke="none">
<path d="M100 865 c0 -23 3 -24 78 -28 l77 -3 -77 -2 -78 -2 0 -40 0 -40 60 0
c33 0 60 -4 60 -10 0 -6 -27 -10 -60 -10 -33 0 -60 -4 -60 -10 0 -5 25 -10 55
-10 30 0 55 -4 55 -10 0 -5 -25 -10 -55 -10 l-55 0 0 -40 0 -40 40 0 c22 0 40
-4 40 -10 0 -5 -18 -10 -40 -10 l-40 0 0 -40 c0 -36 3 -40 25 -40 14 0 25 -4
25 -10 0 -5 -12 -10 -26 -10 l-25 0 3 -82 3 -83 83 -3 c52 -2 82 1 82 8 0 6
28 10 70 10 39 0 70 -4 70 -9 0 -5 333 -9 760 -10 l760 -2 0 286 0 285 -815 0
c-798 0 -815 0 -815 -19 0 -11 7 -26 15 -35 19 -18 19 -32 1 -39 -14 -6 -29
19 -25 39 1 5 1 19 0 32 -1 21 -4 22 -96 22 -94 0 -95 0 -95 -25z m610 5 c0
-6 -47 -10 -120 -10 -73 0 -120 4 -120 10 0 6 47 10 120 10 73 0 120 -4 120
-10z m-20 -70 c0 -6 -40 -10 -100 -10 -60 0 -100 4 -100 10 0 6 40 10 100 10
60 0 100 -4 100 -10z m-10 -30 c0 -6 -37 -10 -90 -10 -53 0 -90 4 -90 10 0 6
37 10 90 10 53 0 90 -4 90 -10z m-20 -40 c0 -6 -32 -10 -75 -10 -43 0 -75 4
-75 10 0 6 32 10 75 10 43 0 75 -4 75 -10z m-312 -17 c-10 -2 -26 -2 -35 0
-10 3 -2 5 17 5 19 0 27 -2 18 -5z m312 -13 c0 -6 -30 -10 -70 -10 -40 0 -70
4 -70 10 0 6 30 10 70 10 40 0 70 -4 70 -10z m-50 -90 c0 -5 -13 -10 -29 -10
-17 0 -33 5 -36 10 -4 6 8 10 29 10 20 0 36 -4 36 -10z m-357 -37 c-7 -2 -21
-2 -30 0 -10 3 -4 5 12 5 17 0 24 -2 18 -5z m87 -3 c0 -5 -11 -10 -25 -10 -14
0 -25 5 -25 10 0 6 11 10 25 10 14 0 25 -4 25 -10z m10 -30 c0 -12 -46 -12
-110 -1 -41 8 -39 9 33 10 45 0 77 -3 77 -9z m60 -10 c0 -5 -2 -10 -4 -10 -3
0 -8 5 -11 10 -3 6 -1 10 4 10 6 0 11 -4 11 -10z m-50 -20 c0 -5 -21 -9 -47
-8 l-48 1 45 7 c25 4 46 8 48 8 1 1 2 -2 2 -8z m253 -27 c-7 -2 -19 -2 -25 0
-7 3 -2 5 12 5 14 0 19 -2 13 -5z m105 -83 c-3 -23 -8 -25 -57 -28 l-54 -3 6
35 c4 27 2 36 -9 36 -8 0 -14 4 -14 9 0 18 46 17 88 -3 36 -17 42 -25 40 -46z
m-338 20 c0 -5 -25 -10 -55 -10 -30 0 -55 5 -55 10 0 6 25 10 55 10 30 0 55
-4 55 -10z m760 -16 c0 -9 -7 -14 -17 -12 -25 5 -28 28 -4 28 12 0 21 -6 21
-16z m-870 -34 c0 -6 -27 -10 -60 -10 -33 0 -60 4 -60 10 0 6 27 10 60 10 33
0 60 -4 60 -10z m190 -10 c0 -5 -4 -12 -10 -15 -5 -3 -10 -4 -10 -1 0 2 -3 12
-6 20 -5 12 -2 15 10 10 9 -3 16 -10 16 -14z"/>
</g>
</svg>
